<svg width="402" height="217" viewBox="0 0 402 217" fill="none" xmlns="http://www.w3.org/2000/svg">
<mask id="path-1-inside-1_8263_151" fill="white">
<path d="M0 8C0 3.58172 3.58172 0 8 0H393.333C397.752 0 401.333 3.58172 401.333 8V209C401.333 213.418 397.752 217 393.333 217H8.00001C3.58173 217 0 213.418 0 209V8Z"/>
</mask>
<path d="M0 8C0 3.58172 3.58172 0 8 0H393.333C397.752 0 401.333 3.58172 401.333 8V209C401.333 213.418 397.752 217 393.333 217H8.00001C3.58173 217 0 213.418 0 209V8Z" fill="white"/>
<path d="M8 1H393.333V-1H8V1ZM400.333 8V209H402.333V8H400.333ZM393.333 216H8.00001V218H393.333V216ZM1 209V8H-1V209H1ZM8.00001 216C4.13402 216 1 212.866 1 209H-1C-1 213.971 3.02945 218 8.00001 218V216ZM400.333 209C400.333 212.866 397.199 216 393.333 216V218C398.304 218 402.333 213.971 402.333 209H400.333ZM393.333 1C397.199 1 400.333 4.13401 400.333 8H402.333C402.333 3.02944 398.304 -1 393.333 -1V1ZM8 -1C3.02944 -1 -1 3.02944 -1 8H1C1 4.13401 4.13401 1 8 1V-1Z" fill="#D9D9D9" mask="url(#path-1-inside-1_8263_151)"/>
<path d="M34 25.6667L36.575 30.8834L42.3333 31.7251L38.1666 35.7834L39.15 41.5167L34 38.8084L28.85 41.5167L29.8333 35.7834L25.6666 31.7251L31.425 30.8834L34 25.6667Z" stroke="#2C2C2C" stroke-width="2" stroke-linecap="round" stroke-linejoin="round"/>
<path d="M58 25.6667L60.575 30.8834L66.3333 31.7251L62.1666 35.7834L63.15 41.5167L58 38.8084L52.85 41.5167L53.8333 35.7834L49.6666 31.7251L55.425 30.8834L58 25.6667Z" stroke="#2C2C2C" stroke-width="2" stroke-linecap="round" stroke-linejoin="round"/>
<path d="M82 25.6667L84.575 30.8834L90.3333 31.7251L86.1666 35.7834L87.15 41.5167L82 38.8084L76.85 41.5167L77.8333 35.7834L73.6666 31.7251L79.425 30.8834L82 25.6667Z" stroke="#2C2C2C" stroke-width="2" stroke-linecap="round" stroke-linejoin="round"/>
<path d="M106 25.6667L108.575 30.8834L114.333 31.7251L110.167 35.7834L111.15 41.5167L106 38.8084L100.85 41.5167L101.833 35.7834L97.6667 31.7251L103.425 30.8834L106 25.6667Z" stroke="#2C2C2C" stroke-width="2" stroke-linecap="round" stroke-linejoin="round"/>
<path d="M130 25.6667L132.575 30.8834L138.333 31.7251L134.167 35.7834L135.15 41.5167L130 38.8084L124.85 41.5167L125.833 35.7834L121.667 31.7251L127.425 30.8834L130 25.6667Z" stroke="#2C2C2C" stroke-width="2" stroke-linecap="round" stroke-linejoin="round"/>
<path d="M25.7216 91V73.5455H32.267C33.608 73.5455 34.733 73.7784 35.642 74.2443C36.5568 74.7102 37.2472 75.3636 37.7131 76.2045C38.1847 77.0398 38.4205 78.0142 38.4205 79.1278C38.4205 80.2472 38.1818 81.2187 37.7045 82.0426C37.233 82.8608 36.5369 83.4943 35.6165 83.9432C34.696 84.3864 33.5653 84.608 32.2244 84.608H27.5625V81.983H31.7983C32.5824 81.983 33.2244 81.875 33.7244 81.6591C34.2244 81.4375 34.5938 81.1165 34.8324 80.696C35.0767 80.2699 35.1989 79.7472 35.1989 79.1278C35.1989 78.5085 35.0767 77.9801 34.8324 77.5426C34.5881 77.0994 34.2159 76.7642 33.7159 76.5369C33.2159 76.304 32.571 76.1875 31.7812 76.1875H28.8835V91H25.7216ZM34.7386 83.0909L39.0597 91H35.5312L31.2869 83.0909H34.7386ZM46.3226 91.2557C45.0101 91.2557 43.8765 90.983 42.922 90.4375C41.9731 89.8864 41.243 89.108 40.7316 88.1023C40.2203 87.0909 39.9646 85.9006 39.9646 84.5312C39.9646 83.1847 40.2203 82.0028 40.7316 80.9858C41.2487 79.9631 41.9703 79.1676 42.8964 78.5994C43.8226 78.0256 44.9106 77.7386 46.1606 77.7386C46.9674 77.7386 47.7288 77.8693 48.4447 78.1307C49.1663 78.3864 49.8027 78.7841 50.3538 79.3239C50.9106 79.8636 51.3481 80.5511 51.6663 81.3864C51.9845 82.2159 52.1436 83.2045 52.1436 84.3523V85.2983H41.4135V83.2188H49.1862C49.1805 82.6278 49.0527 82.1023 48.8027 81.642C48.5527 81.1761 48.2032 80.8097 47.7544 80.5426C47.3112 80.2756 46.7941 80.142 46.2032 80.142C45.5726 80.142 45.0186 80.2955 44.5413 80.6023C44.064 80.9034 43.6919 81.3011 43.4248 81.7955C43.1635 82.2841 43.0299 82.821 43.0243 83.4062V85.2216C43.0243 85.983 43.1635 86.6364 43.4419 87.1818C43.7203 87.7216 44.1095 88.1364 44.6095 88.4261C45.1095 88.7102 45.6947 88.8523 46.3652 88.8523C46.814 88.8523 47.2203 88.7898 47.5839 88.6648C47.9476 88.5341 48.2629 88.3438 48.5299 88.0938C48.797 87.8438 48.9987 87.5341 49.1351 87.1648L52.0157 87.4886C51.8339 88.25 51.4873 88.9148 50.976 89.483C50.4703 90.0455 49.8226 90.483 49.0328 90.7955C48.243 91.1023 47.3396 91.2557 46.3226 91.2557ZM65.5918 77.9091L60.9299 91H57.5208L52.8589 77.9091H56.1487L59.1572 87.6335H59.2936L62.3106 77.9091H65.5918ZM67.2468 91V77.9091H70.332V91H67.2468ZM68.7979 76.0511C68.3093 76.0511 67.8888 75.8892 67.5366 75.5653C67.1843 75.2358 67.0082 74.8409 67.0082 74.3807C67.0082 73.9148 67.1843 73.5199 67.5366 73.196C67.8888 72.8665 68.3093 72.7017 68.7979 72.7017C69.2922 72.7017 69.7127 72.8665 70.0593 73.196C70.4116 73.5199 70.5877 73.9148 70.5877 74.3807C70.5877 74.8409 70.4116 75.2358 70.0593 75.5653C69.7127 75.8892 69.2922 76.0511 68.7979 76.0511ZM78.8201 91.2557C77.5076 91.2557 76.374 90.983 75.4195 90.4375C74.4706 89.8864 73.7405 89.108 73.2291 88.1023C72.7178 87.0909 72.4621 85.9006 72.4621 84.5312C72.4621 83.1847 72.7178 82.0028 73.2291 80.9858C73.7462 79.9631 74.4678 79.1676 75.3939 78.5994C76.3201 78.0256 77.4081 77.7386 78.6581 77.7386C79.4649 77.7386 80.2263 77.8693 80.9422 78.1307C81.6638 78.3864 82.3002 78.7841 82.8513 79.3239C83.4081 79.8636 83.8456 80.5511 84.1638 81.3864C84.482 82.2159 84.6411 83.2045 84.6411 84.3523V85.2983H73.911V83.2188H81.6837C81.678 82.6278 81.5502 82.1023 81.3002 81.642C81.0502 81.1761 80.7007 80.8097 80.2519 80.5426C79.8087 80.2756 79.2916 80.142 78.7007 80.142C78.0701 80.142 77.5161 80.2955 77.0388 80.6023C76.5615 80.9034 76.1894 81.3011 75.9223 81.7955C75.661 82.2841 75.5274 82.821 75.5218 83.4062V85.2216C75.5218 85.983 75.661 86.6364 75.9394 87.1818C76.2178 87.7216 76.607 88.1364 77.107 88.4261C77.607 88.7102 78.1922 88.8523 78.8627 88.8523C79.3115 88.8523 79.7178 88.7898 80.0814 88.6648C80.4451 88.5341 80.7604 88.3438 81.0274 88.0938C81.2945 87.8438 81.4962 87.5341 81.6326 87.1648L84.5132 87.4886C84.3314 88.25 83.9848 88.9148 83.4735 89.483C82.9678 90.0455 82.3201 90.483 81.5303 90.7955C80.7405 91.1023 79.8371 91.2557 78.8201 91.2557ZM89.4026 91L85.7037 77.9091H88.8486L91.1497 87.1136H91.269L93.6213 77.9091H96.7321L99.0844 87.0625H99.2122L101.479 77.9091H104.633L100.925 91H97.7122L95.2577 82.1534H95.0787L92.6241 91H89.4026ZM118.317 77.9091V80.2955H110.791V77.9091H118.317ZM112.649 74.7727H115.734V87.0625C115.734 87.4773 115.797 87.7955 115.922 88.017C116.053 88.233 116.223 88.3807 116.433 88.4602C116.644 88.5398 116.877 88.5795 117.132 88.5795C117.325 88.5795 117.502 88.5653 117.661 88.5369C117.825 88.5085 117.95 88.483 118.036 88.4602L118.555 90.8722C118.391 90.929 118.155 90.9915 117.848 91.0597C117.547 91.1278 117.178 91.1676 116.74 91.179C115.967 91.2017 115.271 91.0852 114.652 90.8295C114.033 90.5682 113.541 90.1648 113.178 89.6193C112.82 89.0739 112.644 88.392 112.649 87.5739V74.7727ZM120.417 91V77.9091H123.502V91H120.417ZM121.968 76.0511C121.48 76.0511 121.059 75.8892 120.707 75.5653C120.355 75.2358 120.178 74.8409 120.178 74.3807C120.178 73.9148 120.355 73.5199 120.707 73.196C121.059 72.8665 121.48 72.7017 121.968 72.7017C122.463 72.7017 122.883 72.8665 123.23 73.196C123.582 73.5199 123.758 73.9148 123.758 74.3807C123.758 74.8409 123.582 75.2358 123.23 75.5653C122.883 75.8892 122.463 76.0511 121.968 76.0511ZM132.732 77.9091V80.2955H125.206V77.9091H132.732ZM127.064 74.7727H130.149V87.0625C130.149 87.4773 130.212 87.7955 130.337 88.017C130.468 88.233 130.638 88.3807 130.848 88.4602C131.059 88.5398 131.292 88.5795 131.547 88.5795C131.74 88.5795 131.917 88.5653 132.076 88.5369C132.24 88.5085 132.365 88.483 132.451 88.4602L132.97 90.8722C132.806 90.929 132.57 90.9915 132.263 91.0597C131.962 91.1278 131.593 91.1676 131.155 91.179C130.382 91.2017 129.686 91.0852 129.067 90.8295C128.448 90.5682 127.956 90.1648 127.593 89.6193C127.235 89.0739 127.059 88.392 127.064 87.5739V74.7727ZM138.199 73.5455V91H135.113V73.5455H138.199ZM146.687 91.2557C145.374 91.2557 144.241 90.983 143.286 90.4375C142.337 89.8864 141.607 89.108 141.096 88.1023C140.584 87.0909 140.329 85.9006 140.329 84.5312C140.329 83.1847 140.584 82.0028 141.096 80.9858C141.613 79.9631 142.334 79.1676 143.26 78.5994C144.187 78.0256 145.275 77.7386 146.525 77.7386C147.332 77.7386 148.093 77.8693 148.809 78.1307C149.53 78.3864 150.167 78.7841 150.718 79.3239C151.275 79.8636 151.712 80.5511 152.03 81.3864C152.349 82.2159 152.508 83.2045 152.508 84.3523V85.2983H141.778V83.2188H149.55C149.545 82.6278 149.417 82.1023 149.167 81.642C148.917 81.1761 148.567 80.8097 148.118 80.5426C147.675 80.2756 147.158 80.142 146.567 80.142C145.937 80.142 145.383 80.2955 144.905 80.6023C144.428 80.9034 144.056 81.3011 143.789 81.7955C143.528 82.2841 143.394 82.821 143.388 83.4062V85.2216C143.388 85.983 143.528 86.6364 143.806 87.1818C144.084 87.7216 144.474 88.1364 144.974 88.4261C145.474 88.7102 146.059 88.8523 146.729 88.8523C147.178 88.8523 147.584 88.7898 147.948 88.6648C148.312 88.5341 148.627 88.3438 148.894 88.0938C149.161 87.8438 149.363 87.5341 149.499 87.1648L152.38 87.4886C152.198 88.25 151.851 88.9148 151.34 89.483C150.834 90.0455 150.187 90.483 149.397 90.7955C148.607 91.1023 147.704 91.2557 146.687 91.2557Z" fill="#1E1E1E"/>
<path d="M25.4091 118V106.364H29.3409C30.25 106.364 30.9962 106.519 31.5795 106.83C32.1629 107.136 32.5947 107.559 32.875 108.097C33.1553 108.634 33.2955 109.246 33.2955 109.932C33.2955 110.617 33.1553 111.225 32.875 111.756C32.5947 112.286 32.1648 112.703 31.5852 113.006C31.0057 113.305 30.2652 113.455 29.3636 113.455H26.1818V112.182H29.3182C29.9394 112.182 30.4394 112.091 30.8182 111.909C31.2008 111.727 31.4773 111.47 31.6477 111.136C31.822 110.799 31.9091 110.398 31.9091 109.932C31.9091 109.466 31.822 109.059 31.6477 108.71C31.4735 108.362 31.1951 108.093 30.8125 107.903C30.4299 107.71 29.9242 107.614 29.2955 107.614H26.8182V118H25.4091ZM30.8864 112.773L33.75 118H32.1136L29.2955 112.773H30.8864ZM39.027 118.182C38.1861 118.182 37.4607 117.996 36.8509 117.625C36.2448 117.25 35.777 116.727 35.4474 116.057C35.1217 115.383 34.9588 114.598 34.9588 113.705C34.9588 112.811 35.1217 112.023 35.4474 111.341C35.777 110.655 36.2353 110.121 36.8224 109.739C37.4134 109.352 38.1027 109.159 38.8906 109.159C39.3452 109.159 39.794 109.235 40.2372 109.386C40.6804 109.538 41.0838 109.784 41.4474 110.125C41.8111 110.462 42.1009 110.909 42.3168 111.466C42.5327 112.023 42.6406 112.708 42.6406 113.523V114.091H35.9134V112.932H41.277C41.277 112.439 41.1785 112 40.9815 111.614C40.7884 111.227 40.5118 110.922 40.152 110.699C39.7959 110.475 39.3755 110.364 38.8906 110.364C38.3565 110.364 37.8944 110.496 37.5043 110.761C37.1179 111.023 36.8205 111.364 36.6122 111.784C36.4039 112.205 36.2997 112.655 36.2997 113.136V113.909C36.2997 114.568 36.4134 115.127 36.6406 115.585C36.8717 116.04 37.1918 116.386 37.6009 116.625C38.0099 116.86 38.4853 116.977 39.027 116.977C39.3793 116.977 39.6974 116.928 39.9815 116.83C40.2694 116.727 40.5175 116.576 40.7259 116.375C40.9342 116.17 41.0952 115.917 41.2088 115.614L42.5043 115.977C42.3679 116.417 42.1387 116.803 41.8168 117.136C41.4948 117.466 41.0971 117.723 40.6236 117.909C40.1501 118.091 39.6179 118.182 39.027 118.182ZM51.5511 109.273L48.3239 118H46.9602L43.733 109.273H45.1875L47.5966 116.227H47.6875L50.0966 109.273H51.5511ZM53.321 118V109.273H54.6619V118H53.321ZM54.0028 107.818C53.7415 107.818 53.5161 107.729 53.3267 107.551C53.1411 107.373 53.0483 107.159 53.0483 106.909C53.0483 106.659 53.1411 106.445 53.3267 106.267C53.5161 106.089 53.7415 106 54.0028 106C54.2642 106 54.4877 106.089 54.6733 106.267C54.8627 106.445 54.9574 106.659 54.9574 106.909C54.9574 107.159 54.8627 107.373 54.6733 107.551C54.4877 107.729 54.2642 107.818 54.0028 107.818ZM60.777 118.182C59.9361 118.182 59.2107 117.996 58.6009 117.625C57.9948 117.25 57.527 116.727 57.1974 116.057C56.8717 115.383 56.7088 114.598 56.7088 113.705C56.7088 112.811 56.8717 112.023 57.1974 111.341C57.527 110.655 57.9853 110.121 58.5724 109.739C59.1634 109.352 59.8527 109.159 60.6406 109.159C61.0952 109.159 61.544 109.235 61.9872 109.386C62.4304 109.538 62.8338 109.784 63.1974 110.125C63.5611 110.462 63.8509 110.909 64.0668 111.466C64.2827 112.023 64.3906 112.708 64.3906 113.523V114.091H57.6634V112.932H63.027C63.027 112.439 62.9285 112 62.7315 111.614C62.5384 111.227 62.2618 110.922 61.902 110.699C61.5459 110.475 61.1255 110.364 60.6406 110.364C60.1065 110.364 59.6444 110.496 59.2543 110.761C58.8679 111.023 58.5705 111.364 58.3622 111.784C58.1539 112.205 58.0497 112.655 58.0497 113.136V113.909C58.0497 114.568 58.1634 115.127 58.3906 115.585C58.6217 116.04 58.9418 116.386 59.3509 116.625C59.7599 116.86 60.2353 116.977 60.777 116.977C61.1293 116.977 61.4474 116.928 61.7315 116.83C62.0194 116.727 62.2675 116.576 62.4759 116.375C62.6842 116.17 62.8452 115.917 62.9588 115.614L64.2543 115.977C64.1179 116.417 63.8887 116.803 63.5668 117.136C63.2448 117.466 62.8471 117.723 62.3736 117.909C61.9001 118.091 61.3679 118.182 60.777 118.182ZM68.4077 118L65.7486 109.273H67.1577L69.044 115.955H69.1349L70.9986 109.273H72.4304L74.2713 115.932H74.3622L76.2486 109.273H77.6577L74.9986 118H73.6804L71.7713 111.295H71.6349L69.7259 118H68.4077ZM84.1122 118V106.364H85.4531V110.659H85.5668C85.6652 110.508 85.8016 110.314 85.9759 110.08C86.1539 109.841 86.4077 109.629 86.7372 109.443C87.0705 109.254 87.5213 109.159 88.0895 109.159C88.8243 109.159 89.4721 109.343 90.0327 109.71C90.5933 110.078 91.0308 110.598 91.3452 111.273C91.6596 111.947 91.8168 112.742 91.8168 113.659C91.8168 114.583 91.6596 115.384 91.3452 116.062C91.0308 116.737 90.5952 117.259 90.0384 117.631C89.4815 117.998 88.8395 118.182 88.1122 118.182C87.5516 118.182 87.1027 118.089 86.7656 117.903C86.4285 117.714 86.169 117.5 85.9872 117.261C85.8054 117.019 85.6652 116.818 85.5668 116.659H85.4077V118H84.1122ZM85.4304 113.636C85.4304 114.295 85.527 114.877 85.7202 115.381C85.9134 115.881 86.1955 116.273 86.5668 116.557C86.938 116.837 87.3925 116.977 87.9304 116.977C88.491 116.977 88.9588 116.83 89.3338 116.534C89.7126 116.235 89.9967 115.833 90.1861 115.33C90.3793 114.822 90.4759 114.258 90.4759 113.636C90.4759 113.023 90.3812 112.47 90.1918 111.977C90.0062 111.481 89.724 111.089 89.3452 110.801C88.9702 110.509 88.4986 110.364 87.9304 110.364C87.3849 110.364 86.9266 110.502 86.5554 110.778C86.1842 111.051 85.9039 111.434 85.7145 111.926C85.5251 112.415 85.4304 112.985 85.4304 113.636ZM97.4134 118.182C96.6255 118.182 95.9342 117.994 95.3395 117.619C94.7486 117.244 94.2865 116.72 93.9531 116.045C93.6236 115.371 93.4588 114.583 93.4588 113.682C93.4588 112.773 93.6236 111.979 93.9531 111.301C94.2865 110.623 94.7486 110.097 95.3395 109.722C95.9342 109.347 96.6255 109.159 97.4134 109.159C98.2012 109.159 98.8906 109.347 99.4815 109.722C100.076 110.097 100.538 110.623 100.868 111.301C101.201 111.979 101.368 112.773 101.368 113.682C101.368 114.583 101.201 115.371 100.868 116.045C100.538 116.72 100.076 117.244 99.4815 117.619C98.8906 117.994 98.2012 118.182 97.4134 118.182ZM97.4134 116.977C98.0118 116.977 98.5043 116.824 98.8906 116.517C99.277 116.21 99.563 115.807 99.7486 115.307C99.9342 114.807 100.027 114.265 100.027 113.682C100.027 113.098 99.9342 112.555 99.7486 112.051C99.563 111.547 99.277 111.14 98.8906 110.83C98.5043 110.519 98.0118 110.364 97.4134 110.364C96.8149 110.364 96.3224 110.519 95.9361 110.83C95.5497 111.14 95.2637 111.547 95.0781 112.051C94.8925 112.555 94.7997 113.098 94.7997 113.682C94.7997 114.265 94.8925 114.807 95.0781 115.307C95.2637 115.807 95.5497 116.21 95.9361 116.517C96.3224 116.824 96.8149 116.977 97.4134 116.977ZM106.71 118.182C105.983 118.182 105.341 117.998 104.784 117.631C104.227 117.259 103.792 116.737 103.477 116.062C103.163 115.384 103.006 114.583 103.006 113.659C103.006 112.742 103.163 111.947 103.477 111.273C103.792 110.598 104.229 110.078 104.79 109.71C105.35 109.343 105.998 109.159 106.733 109.159C107.301 109.159 107.75 109.254 108.08 109.443C108.413 109.629 108.667 109.841 108.841 110.08C109.019 110.314 109.157 110.508 109.256 110.659H109.369V106.364H110.71V118H109.415V116.659H109.256C109.157 116.818 109.017 117.019 108.835 117.261C108.653 117.5 108.394 117.714 108.057 117.903C107.72 118.089 107.271 118.182 106.71 118.182ZM106.892 116.977C107.43 116.977 107.884 116.837 108.256 116.557C108.627 116.273 108.909 115.881 109.102 115.381C109.295 114.877 109.392 114.295 109.392 113.636C109.392 112.985 109.297 112.415 109.108 111.926C108.919 111.434 108.638 111.051 108.267 110.778C107.896 110.502 107.438 110.364 106.892 110.364C106.324 110.364 105.85 110.509 105.472 110.801C105.097 111.089 104.814 111.481 104.625 111.977C104.439 112.47 104.347 113.023 104.347 113.636C104.347 114.258 104.441 114.822 104.631 115.33C104.824 115.833 105.108 116.235 105.483 116.534C105.862 116.83 106.331 116.977 106.892 116.977ZM114.216 121.273C113.989 121.273 113.786 121.254 113.608 121.216C113.43 121.182 113.307 121.148 113.239 121.114L113.58 119.932C113.905 120.015 114.193 120.045 114.443 120.023C114.693 120 114.915 119.888 115.108 119.688C115.305 119.491 115.485 119.17 115.648 118.727L115.898 118.045L112.67 109.273H114.125L116.534 116.227H116.625L119.034 109.273H120.489L116.784 119.273C116.617 119.723 116.411 120.097 116.165 120.392C115.919 120.691 115.633 120.913 115.307 121.057C114.985 121.201 114.621 121.273 114.216 121.273Z" fill="#1E1E1E"/>
<g clip-path="url(#clip0_8263_151)">
<rect x="24" y="147" width="40" height="40" fill="#C4C4C4"/>
</g>
<path d="M77.1477 164V152.364H81.5114C82.4053 152.364 83.1553 152.519 83.7614 152.83C84.3712 153.14 84.8314 153.576 85.142 154.136C85.4564 154.693 85.6136 155.343 85.6136 156.085C85.6136 156.831 85.4545 157.479 85.1364 158.028C84.822 158.574 84.358 158.996 83.7443 159.295C83.1307 159.591 82.3769 159.739 81.483 159.739H78.375V157.989H81.1989C81.7216 157.989 82.1496 157.917 82.483 157.773C82.8163 157.625 83.0625 157.411 83.2216 157.131C83.3845 156.847 83.4659 156.498 83.4659 156.085C83.4659 155.672 83.3845 155.32 83.2216 155.028C83.0587 154.733 82.8106 154.509 82.4773 154.358C82.1439 154.203 81.714 154.125 81.1875 154.125H79.2557V164H77.1477ZM83.1591 158.727L86.0398 164H83.6875L80.858 158.727H83.1591ZM91.2017 164.17C90.3267 164.17 89.571 163.989 88.9347 163.625C88.3021 163.258 87.8153 162.739 87.4744 162.068C87.1335 161.394 86.9631 160.6 86.9631 159.688C86.9631 158.79 87.1335 158.002 87.4744 157.324C87.8191 156.642 88.3002 156.112 88.9176 155.733C89.535 155.35 90.2604 155.159 91.0938 155.159C91.6316 155.159 92.1392 155.246 92.6165 155.42C93.0975 155.591 93.5218 155.856 93.8892 156.216C94.2604 156.576 94.5521 157.034 94.7642 157.591C94.9763 158.144 95.0824 158.803 95.0824 159.568V160.199H87.929V158.812H93.1108C93.107 158.419 93.0218 158.068 92.8551 157.761C92.6884 157.451 92.4555 157.206 92.1562 157.028C91.8608 156.85 91.5161 156.761 91.1222 156.761C90.7017 156.761 90.3324 156.864 90.0142 157.068C89.696 157.269 89.4479 157.534 89.2699 157.864C89.0956 158.189 89.0066 158.547 89.0028 158.938V160.148C89.0028 160.655 89.0956 161.091 89.2812 161.455C89.4669 161.814 89.7263 162.091 90.0597 162.284C90.393 162.473 90.7831 162.568 91.2301 162.568C91.5294 162.568 91.8002 162.527 92.0426 162.443C92.285 162.356 92.4953 162.229 92.6733 162.062C92.8513 161.896 92.9858 161.689 93.0767 161.443L94.9972 161.659C94.8759 162.167 94.6449 162.61 94.304 162.989C93.9669 163.364 93.535 163.655 93.0085 163.864C92.482 164.068 91.8797 164.17 91.2017 164.17ZM104.368 155.273L101.26 164H98.9872L95.8793 155.273H98.0724L100.078 161.756H100.169L102.18 155.273H104.368ZM105.791 164V155.273H107.848V164H105.791ZM106.825 154.034C106.5 154.034 106.219 153.926 105.984 153.71C105.75 153.491 105.632 153.227 105.632 152.92C105.632 152.61 105.75 152.347 105.984 152.131C106.219 151.911 106.5 151.801 106.825 151.801C107.155 151.801 107.435 151.911 107.666 152.131C107.901 152.347 108.018 152.61 108.018 152.92C108.018 153.227 107.901 153.491 107.666 153.71C107.435 153.926 107.155 154.034 106.825 154.034ZM113.827 164.17C112.952 164.17 112.196 163.989 111.56 163.625C110.927 163.258 110.44 162.739 110.099 162.068C109.759 161.394 109.588 160.6 109.588 159.688C109.588 158.79 109.759 158.002 110.099 157.324C110.444 156.642 110.925 156.112 111.543 155.733C112.16 155.35 112.885 155.159 113.719 155.159C114.257 155.159 114.764 155.246 115.241 155.42C115.723 155.591 116.147 155.856 116.514 156.216C116.885 156.576 117.177 157.034 117.389 157.591C117.601 158.144 117.707 158.803 117.707 159.568V160.199H110.554V158.812H115.736C115.732 158.419 115.647 158.068 115.48 157.761C115.313 157.451 115.08 157.206 114.781 157.028C114.486 156.85 114.141 156.761 113.747 156.761C113.327 156.761 112.957 156.864 112.639 157.068C112.321 157.269 112.073 157.534 111.895 157.864C111.721 158.189 111.632 158.547 111.628 158.938V160.148C111.628 160.655 111.721 161.091 111.906 161.455C112.092 161.814 112.351 162.091 112.685 162.284C113.018 162.473 113.408 162.568 113.855 162.568C114.154 162.568 114.425 162.527 114.668 162.443C114.91 162.356 115.12 162.229 115.298 162.062C115.476 161.896 115.611 161.689 115.702 161.443L117.622 161.659C117.501 162.167 117.27 162.61 116.929 162.989C116.592 163.364 116.16 163.655 115.634 163.864C115.107 164.068 114.505 164.17 113.827 164.17ZM121.202 164L118.736 155.273H120.832L122.366 161.409H122.446L124.014 155.273H126.088L127.656 161.375H127.741L129.253 155.273H131.355L128.884 164H126.741L125.105 158.102H124.986L123.349 164H121.202ZM136.405 164.17C135.53 164.17 134.774 163.989 134.138 163.625C133.505 163.258 133.018 162.739 132.678 162.068C132.337 161.394 132.166 160.6 132.166 159.688C132.166 158.79 132.337 158.002 132.678 157.324C133.022 156.642 133.503 156.112 134.121 155.733C134.738 155.35 135.464 155.159 136.297 155.159C136.835 155.159 137.342 155.246 137.82 155.42C138.301 155.591 138.725 155.856 139.092 156.216C139.464 156.576 139.755 157.034 139.967 157.591C140.179 158.144 140.286 158.803 140.286 159.568V160.199H133.132V158.812H138.314C138.31 158.419 138.225 158.068 138.058 157.761C137.892 157.451 137.659 157.206 137.359 157.028C137.064 156.85 136.719 156.761 136.325 156.761C135.905 156.761 135.536 156.864 135.217 157.068C134.899 157.269 134.651 157.534 134.473 157.864C134.299 158.189 134.21 158.547 134.206 158.938V160.148C134.206 160.655 134.299 161.091 134.484 161.455C134.67 161.814 134.929 162.091 135.263 162.284C135.596 162.473 135.986 162.568 136.433 162.568C136.732 162.568 137.003 162.527 137.246 162.443C137.488 162.356 137.698 162.229 137.876 162.062C138.054 161.896 138.189 161.689 138.28 161.443L140.2 161.659C140.079 162.167 139.848 162.61 139.507 162.989C139.17 163.364 138.738 163.655 138.212 163.864C137.685 164.068 137.083 164.17 136.405 164.17ZM142.026 164V155.273H144.02V156.727H144.111C144.27 156.223 144.543 155.835 144.929 155.562C145.319 155.286 145.764 155.148 146.264 155.148C146.378 155.148 146.505 155.153 146.645 155.165C146.789 155.172 146.908 155.186 147.003 155.205V157.097C146.916 157.066 146.777 157.04 146.588 157.017C146.402 156.991 146.223 156.977 146.048 156.977C145.673 156.977 145.336 157.059 145.037 157.222C144.741 157.381 144.509 157.602 144.338 157.886C144.168 158.17 144.082 158.498 144.082 158.869V164H142.026ZM154.395 158.886V164H152.338V155.273H154.304V156.756H154.406C154.607 156.267 154.927 155.879 155.366 155.591C155.81 155.303 156.357 155.159 157.009 155.159C157.611 155.159 158.135 155.288 158.582 155.545C159.033 155.803 159.382 156.176 159.628 156.665C159.878 157.153 160.001 157.746 159.997 158.443V164H157.94V158.761C157.94 158.178 157.789 157.722 157.486 157.392C157.187 157.062 156.772 156.898 156.241 156.898C155.882 156.898 155.562 156.977 155.281 157.136C155.005 157.292 154.787 157.517 154.628 157.812C154.473 158.108 154.395 158.466 154.395 158.886ZM164.599 164.176C164.046 164.176 163.548 164.078 163.105 163.881C162.666 163.68 162.317 163.384 162.06 162.994C161.806 162.604 161.679 162.123 161.679 161.551C161.679 161.059 161.77 160.652 161.952 160.33C162.134 160.008 162.382 159.75 162.696 159.557C163.01 159.364 163.365 159.218 163.759 159.119C164.156 159.017 164.567 158.943 164.991 158.898C165.503 158.845 165.918 158.797 166.236 158.756C166.554 158.71 166.785 158.642 166.929 158.551C167.077 158.456 167.151 158.311 167.151 158.114V158.08C167.151 157.652 167.024 157.32 166.77 157.085C166.516 156.85 166.151 156.733 165.673 156.733C165.17 156.733 164.77 156.843 164.474 157.062C164.183 157.282 163.986 157.542 163.884 157.841L161.963 157.568C162.115 157.038 162.365 156.595 162.713 156.239C163.062 155.879 163.488 155.61 163.991 155.432C164.495 155.25 165.052 155.159 165.662 155.159C166.082 155.159 166.501 155.208 166.918 155.307C167.334 155.405 167.715 155.568 168.06 155.795C168.404 156.019 168.681 156.324 168.889 156.71C169.101 157.097 169.207 157.58 169.207 158.159V164H167.23V162.801H167.162C167.037 163.044 166.861 163.271 166.634 163.483C166.41 163.691 166.128 163.86 165.787 163.989C165.45 164.114 165.054 164.176 164.599 164.176ZM165.134 162.665C165.546 162.665 165.904 162.583 166.207 162.42C166.51 162.254 166.743 162.034 166.906 161.761C167.073 161.489 167.156 161.191 167.156 160.869V159.841C167.092 159.894 166.982 159.943 166.827 159.989C166.675 160.034 166.505 160.074 166.315 160.108C166.126 160.142 165.938 160.172 165.753 160.199C165.567 160.225 165.406 160.248 165.27 160.267C164.963 160.309 164.688 160.377 164.446 160.472C164.204 160.566 164.012 160.699 163.872 160.869C163.732 161.036 163.662 161.252 163.662 161.517C163.662 161.896 163.8 162.182 164.077 162.375C164.353 162.568 164.705 162.665 165.134 162.665ZM171.276 164V155.273H173.241V156.756H173.344C173.526 156.256 173.827 155.866 174.247 155.585C174.668 155.301 175.17 155.159 175.753 155.159C176.344 155.159 176.842 155.303 177.247 155.591C177.656 155.875 177.944 156.263 178.111 156.756H178.202C178.395 156.271 178.721 155.884 179.179 155.597C179.641 155.305 180.188 155.159 180.821 155.159C181.624 155.159 182.279 155.413 182.787 155.92C183.295 156.428 183.548 157.169 183.548 158.142V164H181.486V158.46C181.486 157.919 181.342 157.523 181.054 157.273C180.766 157.019 180.414 156.892 179.997 156.892C179.501 156.892 179.113 157.047 178.832 157.358C178.556 157.665 178.418 158.064 178.418 158.557V164H176.401V158.375C176.401 157.924 176.264 157.564 175.991 157.295C175.723 157.027 175.37 156.892 174.935 156.892C174.639 156.892 174.37 156.968 174.128 157.119C173.885 157.267 173.692 157.477 173.548 157.75C173.404 158.019 173.332 158.333 173.332 158.693V164H171.276ZM189.499 164.17C188.624 164.17 187.868 163.989 187.232 163.625C186.599 163.258 186.112 162.739 185.771 162.068C185.43 161.394 185.26 160.6 185.26 159.688C185.26 158.79 185.43 158.002 185.771 157.324C186.116 156.642 186.597 156.112 187.214 155.733C187.832 155.35 188.557 155.159 189.391 155.159C189.929 155.159 190.436 155.246 190.913 155.42C191.394 155.591 191.819 155.856 192.186 156.216C192.557 156.576 192.849 157.034 193.061 157.591C193.273 158.144 193.379 158.803 193.379 159.568V160.199H186.226V158.812H191.408C191.404 158.419 191.319 158.068 191.152 157.761C190.985 157.451 190.752 157.206 190.453 157.028C190.158 156.85 189.813 156.761 189.419 156.761C188.999 156.761 188.629 156.864 188.311 157.068C187.993 157.269 187.745 157.534 187.567 157.864C187.393 158.189 187.304 158.547 187.3 158.938V160.148C187.3 160.655 187.393 161.091 187.578 161.455C187.764 161.814 188.023 162.091 188.357 162.284C188.69 162.473 189.08 162.568 189.527 162.568C189.826 162.568 190.097 162.527 190.339 162.443C190.582 162.356 190.792 162.229 190.97 162.062C191.148 161.896 191.283 161.689 191.374 161.443L193.294 161.659C193.173 162.167 192.942 162.61 192.601 162.989C192.264 163.364 191.832 163.655 191.305 163.864C190.779 164.068 190.177 164.17 189.499 164.17Z" fill="#757575"/>
<path d="M81 188H77.4091V176.364H81.1591C82.2879 176.364 83.2538 176.597 84.0568 177.062C84.8598 177.525 85.4754 178.189 85.9034 179.057C86.3314 179.92 86.5455 180.955 86.5455 182.159C86.5455 183.371 86.3295 184.415 85.8977 185.29C85.4659 186.161 84.8371 186.831 84.0114 187.301C83.1856 187.767 82.1818 188 81 188ZM78.8182 186.75H80.9091C81.8712 186.75 82.6686 186.564 83.3011 186.193C83.9337 185.822 84.4053 185.294 84.7159 184.608C85.0265 183.922 85.1818 183.106 85.1818 182.159C85.1818 181.22 85.0284 180.411 84.7216 179.733C84.4148 179.051 83.9564 178.528 83.3466 178.165C82.7367 177.797 81.9773 177.614 81.0682 177.614H78.8182V186.75ZM91.2955 188.205C90.7424 188.205 90.2405 188.1 89.7898 187.892C89.339 187.68 88.9811 187.375 88.7159 186.977C88.4508 186.576 88.3182 186.091 88.3182 185.523C88.3182 185.023 88.4167 184.617 88.6136 184.307C88.8106 183.992 89.0739 183.746 89.4034 183.568C89.733 183.39 90.0966 183.258 90.4943 183.17C90.8958 183.08 91.2992 183.008 91.7045 182.955C92.2348 182.886 92.6648 182.835 92.9943 182.801C93.3277 182.763 93.5701 182.701 93.7216 182.614C93.8769 182.527 93.9545 182.375 93.9545 182.159V182.114C93.9545 181.553 93.8011 181.117 93.4943 180.807C93.1913 180.496 92.7311 180.341 92.1136 180.341C91.4735 180.341 90.9716 180.481 90.608 180.761C90.2443 181.042 89.9886 181.341 89.8409 181.659L88.5682 181.205C88.7955 180.674 89.0985 180.261 89.4773 179.966C89.8598 179.667 90.2765 179.458 90.7273 179.341C91.1818 179.22 91.6288 179.159 92.0682 179.159C92.3485 179.159 92.6705 179.193 93.0341 179.261C93.4015 179.326 93.7557 179.46 94.0966 179.665C94.4413 179.869 94.7273 180.178 94.9545 180.591C95.1818 181.004 95.2955 181.557 95.2955 182.25V188H93.9545V186.818H93.8864C93.7955 187.008 93.6439 187.21 93.4318 187.426C93.2197 187.642 92.9375 187.826 92.5852 187.977C92.233 188.129 91.803 188.205 91.2955 188.205ZM91.5 187C92.0303 187 92.4773 186.896 92.8409 186.688C93.2083 186.479 93.4848 186.21 93.6705 185.881C93.8598 185.551 93.9545 185.205 93.9545 184.841V183.614C93.8977 183.682 93.7727 183.744 93.5795 183.801C93.3902 183.854 93.1705 183.902 92.9205 183.943C92.6742 183.981 92.4337 184.015 92.1989 184.045C91.9678 184.072 91.7803 184.095 91.6364 184.114C91.2879 184.159 90.9621 184.233 90.6591 184.335C90.3598 184.434 90.1174 184.583 89.9318 184.784C89.75 184.981 89.6591 185.25 89.6591 185.591C89.6591 186.057 89.8314 186.409 90.1761 186.648C90.5246 186.883 90.9659 187 91.5 187ZM101.538 179.273V180.409H97.0156V179.273H101.538ZM98.3338 177.182H99.6747V185.5C99.6747 185.879 99.7296 186.163 99.8395 186.352C99.9531 186.538 100.097 186.663 100.271 186.727C100.449 186.788 100.637 186.818 100.834 186.818C100.982 186.818 101.103 186.811 101.197 186.795C101.292 186.777 101.368 186.761 101.425 186.75L101.697 187.955C101.607 187.989 101.48 188.023 101.317 188.057C101.154 188.095 100.947 188.114 100.697 188.114C100.319 188.114 99.9474 188.032 99.5838 187.869C99.224 187.706 98.9247 187.458 98.6861 187.125C98.4512 186.792 98.3338 186.371 98.3338 185.864V177.182ZM107.121 188.182C106.28 188.182 105.554 187.996 104.945 187.625C104.339 187.25 103.871 186.727 103.541 186.057C103.215 185.383 103.053 184.598 103.053 183.705C103.053 182.811 103.215 182.023 103.541 181.341C103.871 180.655 104.329 180.121 104.916 179.739C105.507 179.352 106.196 179.159 106.984 179.159C107.439 179.159 107.888 179.235 108.331 179.386C108.774 179.538 109.178 179.784 109.541 180.125C109.905 180.462 110.195 180.909 110.411 181.466C110.626 182.023 110.734 182.708 110.734 183.523V184.091H104.007V182.932H109.371C109.371 182.439 109.272 182 109.075 181.614C108.882 181.227 108.606 180.922 108.246 180.699C107.89 180.475 107.469 180.364 106.984 180.364C106.45 180.364 105.988 180.496 105.598 180.761C105.212 181.023 104.914 181.364 104.706 181.784C104.498 182.205 104.393 182.655 104.393 183.136V183.909C104.393 184.568 104.507 185.127 104.734 185.585C104.965 186.04 105.286 186.386 105.695 186.625C106.104 186.86 106.579 186.977 107.121 186.977C107.473 186.977 107.791 186.928 108.075 186.83C108.363 186.727 108.611 186.576 108.82 186.375C109.028 186.17 109.189 185.917 109.303 185.614L110.598 185.977C110.462 186.417 110.232 186.803 109.911 187.136C109.589 187.466 109.191 187.723 108.717 187.909C108.244 188.091 107.712 188.182 107.121 188.182Z" fill="#B3B3B3"/>
<defs>
<clipPath id="clip0_8263_151">
<path d="M24 167C24 155.954 32.9543 147 44 147C55.0457 147 64 155.954 64 167C64 178.046 55.0457 187 44 187C32.9543 187 24 178.046 24 167Z" fill="white"/>
</clipPath>
</defs>
</svg>
